<svg width="40" height="14" viewBox="0 0 40 14" fill="none" xmlns="http://www.w3.org/2000/svg">
<path d="M4.68287 14C3.73272 14 2.90597 13.8195 2.20261 13.4586C1.49926 13.0976 0.956316 12.5948 0.57379 11.9503C0.191263 11.3057 0 10.558 0 9.70718H1.62882C1.62882 10.2357 1.74605 10.7256 1.9805 11.1768C2.21495 11.6151 2.55429 11.9696 2.99851 12.2403C3.45508 12.4982 4.01653 12.6271 4.68287 12.6271C5.26282 12.6271 5.75641 12.5304 6.16361 12.337C6.58316 12.1308 6.89782 11.8536 7.10759 11.5055C7.3297 11.1575 7.44076 10.7643 7.44076 10.326C7.44076 9.81031 7.33587 9.39134 7.1261 9.06906C6.91633 8.73389 6.62635 8.46317 6.25616 8.25691C5.89831 8.05064 5.47877 7.87017 4.99752 7.71547C4.51628 7.54788 4.01036 7.3674 3.47976 7.17403C2.43089 6.81308 1.65967 6.36188 1.16609 5.82044C0.684846 5.27901 0.444224 4.57643 0.444224 3.71271C0.444224 2.9779 0.604639 2.33333 0.925467 1.77901C1.25864 1.22468 1.72754 0.792817 2.33218 0.483425C2.94916 0.161142 3.67719 0 4.51628 0C5.34303 0 6.05873 0.161142 6.66336 0.483425C7.28034 0.805708 7.76159 1.25046 8.10709 1.81768C8.4526 2.37201 8.62536 3.01657 8.62536 3.75138H6.99653C6.99653 3.37753 6.90399 3.01013 6.71889 2.64917C6.5338 2.28821 6.24999 1.99171 5.86746 1.75967C5.49728 1.51473 5.02837 1.39226 4.46075 1.39226C3.99185 1.37937 3.5723 1.46317 3.20212 1.64365C2.84427 1.81123 2.56046 2.05617 2.35069 2.37845C2.15325 2.70074 2.05454 3.09392 2.05454 3.55801C2.05454 3.99632 2.14091 4.35083 2.31367 4.62155C2.49876 4.89227 2.75789 5.12431 3.09106 5.31768C3.43657 5.49816 3.8376 5.66575 4.29417 5.82044C4.75073 5.97514 5.25665 6.14917 5.81193 6.34254C6.44125 6.56169 6.99653 6.83241 7.47778 7.1547C7.97136 7.46409 8.35388 7.86372 8.62536 8.35359C8.90917 8.84346 9.05107 9.46869 9.05107 10.2293C9.05107 10.8738 8.88449 11.4862 8.55132 12.0663C8.23049 12.6335 7.74925 13.0976 7.10759 13.4586C6.46593 13.8195 5.65769 14 4.68287 14Z" fill="black"/>
<path d="M17.8991 13.768L22.6745 0.232044H24.3219L29.0788 13.768H27.4129L23.4889 2.26243L19.5279 13.768H17.8991ZM20.0832 10.2873L20.5274 8.97238H26.3949L26.8391 10.2873H20.0832Z" fill="black"/>
<path d="M38.4452 13.768V0.232044H40V13.768H38.4452Z" fill="black"/>
</svg>
