<svg width="41" height="13" viewBox="0 0 41 13" fill="none" xmlns="http://www.w3.org/2000/svg">
<path d="M4.80664 13C3.81967 13 2.96089 12.8324 2.23028 12.4972C1.51249 12.1621 0.961327 11.6952 0.576796 11.0967C0.192265 10.4862 0 9.7919 0 9.01381H1.40354C1.40354 9.54052 1.53171 10.0253 1.78807 10.4682C2.04442 10.9111 2.42254 11.2703 2.92243 11.5456C3.42232 11.8089 4.05039 11.9406 4.80664 11.9406C5.47316 11.9406 6.03073 11.8389 6.47934 11.6354C6.94078 11.4199 7.29327 11.1386 7.5368 10.7914C7.78034 10.4443 7.90211 10.0493 7.90211 9.60635C7.90211 9.07965 7.78034 8.6547 7.5368 8.33149C7.30609 8.00829 6.98564 7.74494 6.57548 7.54144C6.16531 7.33794 5.69746 7.16436 5.17194 7.02072C4.65923 6.8651 4.11448 6.69751 3.53768 6.51796C2.49945 6.18278 1.7368 5.7698 1.24973 5.27901C0.762653 4.78821 0.512708 4.15976 0.49989 3.39365C0.49989 2.73527 0.660111 2.1547 0.980554 1.65193C1.31381 1.1372 1.79448 0.736187 2.42254 0.448895C3.05061 0.149632 3.79404 0 4.65282 0C5.48597 0 6.21017 0.149632 6.82542 0.448895C7.45349 0.736187 7.94056 1.14319 8.28664 1.66989C8.63272 2.18462 8.80576 2.77716 8.80576 3.44751H7.42144C7.42144 3.06446 7.31249 2.69337 7.09459 2.33425C6.88951 1.96317 6.57548 1.6639 6.15249 1.43646C5.74233 1.19705 5.2168 1.07735 4.57592 1.07735C4.05039 1.07735 3.58255 1.16713 3.17238 1.34668C2.77503 1.51427 2.461 1.76565 2.23028 2.10083C1.99956 2.42403 1.8842 2.80709 1.8842 3.25C1.8842 3.68094 1.98674 4.03407 2.19183 4.30939C2.39691 4.58471 2.68531 4.81215 3.05702 4.99171C3.42873 5.17127 3.86453 5.33886 4.36442 5.49448C4.86431 5.63812 5.42188 5.80571 6.03713 5.99724C6.6652 6.20074 7.22277 6.44613 7.70984 6.73343C8.19692 7.02072 8.58145 7.3918 8.86344 7.84669C9.14543 8.28959 9.28642 8.85221 9.28642 9.53453C9.28642 10.1211 9.11979 10.6837 8.78653 11.2224C8.46609 11.7491 7.97261 12.18 7.30609 12.5152C6.63957 12.8384 5.80642 13 4.80664 13Z" fill="black"/>
<path d="M18.5185 12.7845L23.4789 0.215469H24.8632L29.8237 12.7845H28.4009L24.1711 1.8674L19.922 12.7845H18.5185ZM20.7872 9.39088L21.191 8.34945H27.132L27.5357 9.39088H20.7872Z" fill="black"/>
<path d="M39.6541 12.7845V0.215469H41V12.7845H39.6541Z" fill="black"/>
</svg>
